<svg width="9" height="8" viewBox="0 0 9 8" fill="none" xmlns="http://www.w3.org/2000/svg">
<path fill-rule="evenodd" clip-rule="evenodd" d="M4.5925 0.0924683C5.09156 0.0924659 5.58573 0.190761 6.0468 0.381741C6.50787 0.572721 6.92681 0.852646 7.2797 1.20553C7.63259 1.55842 7.91252 1.97736 8.1035 2.43843C8.29448 2.8995 8.39278 3.39367 8.39278 3.89273C8.39278 5.99157 6.69133 7.69301 4.5925 7.69301C2.49368 7.69301 0.792236 5.99157 0.792236 3.89273C0.792236 1.79391 2.49368 0.0924683 4.5925 0.0924683ZM4.97254 4.27277H4.21248C3.27164 4.27277 2.46391 4.84258 2.11553 5.65597C2.66676 6.42893 3.57077 6.93295 4.5925 6.93295C5.61422 6.93295 6.51824 6.42893 7.06948 5.65592C6.7211 4.84258 5.91337 4.27277 4.97254 4.27277ZM4.5925 1.23255C3.96285 1.23255 3.45242 1.74298 3.45242 2.37263C3.45242 3.00227 3.96285 3.51271 4.5925 3.51271C5.22214 3.51271 5.73258 3.00227 5.73258 2.37263C5.73258 1.74298 5.22216 1.23255 4.5925 1.23255Z" fill="#8A8A8A"/>
</svg>
